<svg width="409" height="53" viewBox="0 0 409 53" fill="none" xmlns="http://www.w3.org/2000/svg">
<g filter="url(#filter0_d)">
<path d="M16.005 41.336C13.669 41.336 11.557 40.936 9.669 40.136C7.813 39.336 6.341 38.184 5.253 36.68C4.165 35.176 3.605 33.4 3.573 31.352H10.773C10.869 32.728 11.349 33.816 12.213 34.616C13.109 35.416 14.325 35.816 15.861 35.816C17.429 35.816 18.661 35.448 19.557 34.712C20.453 33.944 20.901 32.952 20.901 31.736C20.901 30.744 20.597 29.928 19.989 29.288C19.381 28.648 18.613 28.152 17.685 27.8C16.789 27.416 15.541 27 13.941 26.552C11.765 25.912 9.989 25.288 8.613 24.68C7.269 24.04 6.101 23.096 5.109 21.848C4.149 20.568 3.669 18.872 3.669 16.76C3.669 14.776 4.165 13.048 5.157 11.576C6.149 10.104 7.541 8.984 9.333 8.216C11.125 7.416 13.173 7.016 15.477 7.016C18.933 7.016 21.733 7.864 23.877 9.56C26.053 11.224 27.253 13.56 27.477 16.568H20.085C20.021 15.416 19.525 14.472 18.597 13.736C17.701 12.968 16.501 12.584 14.997 12.584C13.685 12.584 12.629 12.92 11.829 13.592C11.061 14.264 10.677 15.24 10.677 16.52C10.677 17.416 10.965 18.168 11.541 18.776C12.149 19.352 12.885 19.832 13.749 20.216C14.645 20.568 15.893 20.984 17.493 21.464C19.669 22.104 21.445 22.744 22.821 23.384C24.197 24.024 25.381 24.984 26.373 26.264C27.365 27.544 27.861 29.224 27.861 31.304C27.861 33.096 27.397 34.76 26.469 36.296C25.541 37.832 24.181 39.064 22.389 39.992C20.597 40.888 18.469 41.336 16.005 41.336ZM58.407 27.128C58.407 28.088 58.343 28.952 58.215 29.72H38.775C38.935 31.64 39.607 33.144 40.791 34.232C41.975 35.32 43.431 35.864 45.159 35.864C47.655 35.864 49.431 34.792 50.487 32.648H57.735C56.967 35.208 55.495 37.32 53.319 38.984C51.143 40.616 48.471 41.432 45.303 41.432C42.743 41.432 40.439 40.872 38.391 39.752C36.375 38.6 34.791 36.984 33.639 34.904C32.519 32.824 31.959 30.424 31.959 27.704C31.959 24.952 32.519 22.536 33.639 20.456C34.759 18.376 36.327 16.776 38.343 15.656C40.359 14.536 42.679 13.976 45.303 13.976C47.831 13.976 50.087 14.52 52.071 15.608C54.087 16.696 55.639 18.248 56.727 20.264C57.847 22.248 58.407 24.536 58.407 27.128ZM51.447 25.208C51.415 23.48 50.791 22.104 49.575 21.08C48.359 20.024 46.871 19.496 45.111 19.496C43.447 19.496 42.039 20.008 40.887 21.032C39.767 22.024 39.079 23.416 38.823 25.208H51.447ZM61.584 27.608C61.584 24.92 62.112 22.536 63.168 20.456C64.256 18.376 65.712 16.776 67.536 15.656C69.392 14.536 71.456 13.976 73.728 13.976C75.712 13.976 77.44 14.376 78.912 15.176C80.416 15.976 81.616 16.984 82.512 18.2V14.408H89.28V41H82.512V37.112C81.648 38.36 80.448 39.4 78.912 40.232C77.408 41.032 75.664 41.432 73.68 41.432C71.44 41.432 69.392 40.856 67.536 39.704C65.712 38.552 64.256 36.936 63.168 34.856C62.112 32.744 61.584 30.328 61.584 27.608ZM82.512 27.704C82.512 26.072 82.192 24.68 81.552 23.528C80.912 22.344 80.048 21.448 78.96 20.84C77.872 20.2 76.704 19.88 75.456 19.88C74.208 19.88 73.056 20.184 72 20.792C70.944 21.4 70.08 22.296 69.408 23.48C68.768 24.632 68.448 26.008 68.448 27.608C68.448 29.208 68.768 30.616 69.408 31.832C70.08 33.016 70.944 33.928 72 34.568C73.088 35.208 74.24 35.528 75.456 35.528C76.704 35.528 77.872 35.224 78.96 34.616C80.048 33.976 80.912 33.08 81.552 31.928C82.192 30.744 82.512 29.336 82.512 27.704ZM102.563 18.536C103.427 17.128 104.547 16.024 105.923 15.224C107.331 14.424 108.931 14.024 110.723 14.024V21.08H108.947C106.835 21.08 105.235 21.576 104.147 22.568C103.091 23.56 102.563 25.288 102.563 27.752V41H95.8433V14.408H102.563V18.536ZM113.521 27.704C113.521 24.952 114.082 22.552 115.202 20.504C116.322 18.424 117.874 16.824 119.858 15.704C121.842 14.552 124.114 13.976 126.674 13.976C129.97 13.976 132.69 14.808 134.834 16.472C137.01 18.104 138.466 20.408 139.202 23.384H131.954C131.57 22.232 130.914 21.336 129.986 20.696C129.09 20.024 127.97 19.688 126.626 19.688C124.706 19.688 123.186 20.392 122.066 21.8C120.946 23.176 120.386 25.144 120.386 27.704C120.386 30.232 120.946 32.2 122.066 33.608C123.186 34.984 124.706 35.672 126.626 35.672C129.346 35.672 131.122 34.456 131.954 32.024H139.202C138.466 34.904 137.01 37.192 134.834 38.888C132.658 40.584 129.938 41.432 126.674 41.432C124.114 41.432 121.842 40.872 119.858 39.752C117.874 38.6 116.322 37 115.202 34.952C114.082 32.872 113.521 30.456 113.521 27.704ZM159.101 14.024C161.117 14.024 162.909 14.472 164.477 15.368C166.045 16.232 167.261 17.528 168.125 19.256C169.021 20.952 169.469 23 169.469 25.4V41H162.749V26.312C162.749 24.2 162.221 22.584 161.165 21.464C160.109 20.312 158.669 19.736 156.845 19.736C154.989 19.736 153.517 20.312 152.429 21.464C151.373 22.584 150.845 24.2 150.845 26.312V41H144.125V5.48H150.845V17.72C151.709 16.568 152.861 15.672 154.301 15.032C155.741 14.36 157.341 14.024 159.101 14.024ZM185.568 27.608C185.568 24.92 186.096 22.536 187.152 20.456C188.24 18.376 189.696 16.776 191.52 15.656C193.376 14.536 195.44 13.976 197.712 13.976C199.696 13.976 201.424 14.376 202.896 15.176C204.4 15.976 205.6 16.984 206.496 18.2V14.408H213.264V41H206.496V37.112C205.632 38.36 204.432 39.4 202.896 40.232C201.392 41.032 199.648 41.432 197.664 41.432C195.424 41.432 193.376 40.856 191.52 39.704C189.696 38.552 188.24 36.936 187.152 34.856C186.096 32.744 185.568 30.328 185.568 27.608ZM206.496 27.704C206.496 26.072 206.176 24.68 205.536 23.528C204.896 22.344 204.032 21.448 202.944 20.84C201.856 20.2 200.688 19.88 199.44 19.88C198.192 19.88 197.04 20.184 195.984 20.792C194.928 21.4 194.064 22.296 193.392 23.48C192.752 24.632 192.432 26.008 192.432 27.608C192.432 29.208 192.752 30.616 193.392 31.832C194.064 33.016 194.928 33.928 195.984 34.568C197.072 35.208 198.224 35.528 199.44 35.528C200.688 35.528 201.856 35.224 202.944 34.616C204.032 33.976 204.896 33.08 205.536 31.928C206.176 30.744 206.496 29.336 206.496 27.704ZM234.564 14.024C237.732 14.024 240.292 15.032 242.244 17.048C244.196 19.032 245.172 21.816 245.172 25.4V41H238.452V26.312C238.452 24.2 237.924 22.584 236.868 21.464C235.812 20.312 234.372 19.736 232.548 19.736C230.692 19.736 229.22 20.312 228.132 21.464C227.076 22.584 226.548 24.2 226.548 26.312V41H219.828V14.408H226.548V17.72C227.444 16.568 228.58 15.672 229.956 15.032C231.364 14.36 232.9 14.024 234.564 14.024ZM249.834 27.608C249.834 24.92 250.362 22.536 251.418 20.456C252.506 18.376 253.978 16.776 255.834 15.656C257.69 14.536 259.754 13.976 262.026 13.976C263.754 13.976 265.402 14.36 266.97 15.128C268.538 15.864 269.786 16.856 270.714 18.104V5.48H277.53V41H270.714V37.064C269.882 38.376 268.714 39.432 267.21 40.232C265.706 41.032 263.962 41.432 261.978 41.432C259.738 41.432 257.69 40.856 255.834 39.704C253.978 38.552 252.506 36.936 251.418 34.856C250.362 32.744 249.834 30.328 249.834 27.608ZM270.762 27.704C270.762 26.072 270.442 24.68 269.802 23.528C269.162 22.344 268.298 21.448 267.21 20.84C266.122 20.2 264.954 19.88 263.706 19.88C262.458 19.88 261.306 20.184 260.25 20.792C259.194 21.4 258.33 22.296 257.658 23.48C257.018 24.632 256.698 26.008 256.698 27.608C256.698 29.208 257.018 30.616 257.658 31.832C258.33 33.016 259.194 33.928 260.25 34.568C261.338 35.208 262.49 35.528 263.706 35.528C264.954 35.528 266.122 35.224 267.21 34.616C268.298 33.976 269.162 33.08 269.802 31.928C270.442 30.744 270.762 29.336 270.762 27.704ZM293.899 24.2C293.899 20.904 294.635 17.96 296.107 15.368C297.611 12.744 299.643 10.712 302.203 9.272C304.795 7.8 307.691 7.064 310.891 7.064C314.635 7.064 317.915 8.024 320.731 9.944C323.547 11.864 325.515 14.52 326.635 17.912H318.907C318.139 16.312 317.051 15.112 315.643 14.312C314.267 13.512 312.667 13.112 310.843 13.112C308.891 13.112 307.147 13.576 305.611 14.504C304.107 15.4 302.923 16.68 302.059 18.344C301.227 20.008 300.811 21.96 300.811 24.2C300.811 26.408 301.227 28.36 302.059 30.056C302.923 31.72 304.107 33.016 305.611 33.944C307.147 34.84 308.891 35.288 310.843 35.288C312.667 35.288 314.267 34.888 315.643 34.088C317.051 33.256 318.139 32.04 318.907 30.44H326.635C325.515 33.864 323.547 36.536 320.731 38.456C317.947 40.344 314.667 41.288 310.891 41.288C307.691 41.288 304.795 40.568 302.203 39.128C299.643 37.656 297.611 35.624 296.107 33.032C294.635 30.44 293.899 27.496 293.899 24.2ZM347.351 14.024C349.367 14.024 351.159 14.472 352.727 15.368C354.295 16.232 355.511 17.528 356.375 19.256C357.271 20.952 357.719 23 357.719 25.4V41H350.999V26.312C350.999 24.2 350.471 22.584 349.415 21.464C348.359 20.312 346.919 19.736 345.095 19.736C343.239 19.736 341.767 20.312 340.679 21.464C339.623 22.584 339.095 24.2 339.095 26.312V41H332.375V5.48H339.095V17.72C339.959 16.568 341.111 15.672 342.551 15.032C343.991 14.36 345.591 14.024 347.351 14.024ZM367.517 11.24C366.333 11.24 365.341 10.872 364.541 10.136C363.773 9.368 363.389 8.424 363.389 7.304C363.389 6.184 363.773 5.256 364.541 4.52C365.341 3.752 366.333 3.368 367.517 3.368C368.701 3.368 369.677 3.752 370.445 4.52C371.245 5.256 371.645 6.184 371.645 7.304C371.645 8.424 371.245 9.368 370.445 10.136C369.677 10.872 368.701 11.24 367.517 11.24ZM370.829 14.408V41H364.109V14.408H370.829ZM384.188 5.48V41H377.468V5.48H384.188ZM397.548 5.48V41H390.828V5.48H397.548Z" fill="white"/>
</g>
<defs>
<filter id="filter0_d" x="0.572998" y="0.368042" width="407.975" height="52.064" filterUnits="userSpaceOnUse" color-interpolation-filters="sRGB">
<feFlood flood-opacity="0" result="BackgroundImageFix"/>
<feColorMatrix in="SourceAlpha" type="matrix" values="0 0 0 0 0 0 0 0 0 0 0 0 0 0 0 0 0 0 127 0"/>
<feOffset dx="4" dy="4"/>
<feGaussianBlur stdDeviation="3.5"/>
<feColorMatrix type="matrix" values="0 0 0 0 0 0 0 0 0 0 0 0 0 0 0 0 0 0 0.25 0"/>
<feBlend mode="normal" in2="BackgroundImageFix" result="effect1_dropShadow"/>
<feBlend mode="normal" in="SourceGraphic" in2="effect1_dropShadow" result="shape"/>
</filter>
</defs>
</svg>
