<svg width="78" height="78" viewBox="0 0 78 78" fill="none" xmlns="http://www.w3.org/2000/svg">
<g clip-path="url(#clip0)">
<g filter="url(#filter0_d)">
<path d="M69 57.1435L66.9218 60L43.0275 46.1254C42.175 45.6301 41.8831 44.5342 42.375 43.6768C46.7786 36.0062 44.1562 26.1625 36.5295 21.734C28.9011 17.305 19.1156 19.9431 14.7124 27.6131C12.5791 31.329 12.0124 35.658 13.1165 39.8023C14.2205 43.947 16.8634 47.4108 20.5579 49.556C25.4502 52.3975 31.5425 52.4134 36.4571 49.6008L37.3851 51.1519L38.2196 52.7168C32.2094 56.1558 24.7596 56.1348 18.7758 52.6607C14.2568 50.0363 11.0245 45.7996 9.67406 40.7302C8.32364 35.6608 9.01641 30.3656 11.6255 25.8208C17.0111 16.4383 28.9823 13.2107 38.3116 18.6292C47.1198 23.7443 50.4704 34.7647 46.283 43.8766L69 57.1435Z" fill="#231E1E"/>
<path d="M36.0274 22.5988C43.1757 26.7496 45.6387 35.9833 41.5078 43.1789L41.5076 43.1792C40.7432 44.5115 41.1946 46.2171 42.5252 46.9901L42.5254 46.9902L66.4197 60.8648L67.1997 61.3177L67.7304 60.5883L69.8086 57.7318L70.4592 56.8377L69.5043 56.28L47.553 43.4602C51.3831 34.0577 47.8071 22.987 38.8139 17.7644C29.0028 12.0662 16.4183 15.4622 10.7582 25.323C8.0176 30.0969 7.28951 35.6637 8.70776 40.9876C10.1261 46.3118 13.5246 50.7675 18.2736 53.5255L18.2737 53.5256C24.5664 57.1789 32.3967 57.2007 38.7162 53.5847L39.5587 53.1027L39.102 52.2462L38.2674 50.6814L38.2559 50.6596L38.2432 50.6385L37.3152 49.0874L36.8117 48.2456L35.9604 48.7329C31.355 51.3686 25.6433 51.3533 21.0602 48.6913L21.06 48.6912C17.5956 46.6796 15.1189 43.4348 14.0828 39.5449L14.0828 39.5449C13.0466 35.6553 13.5779 31.5977 15.5797 28.111L15.5797 28.111C19.7083 20.9192 28.8806 18.4494 36.0274 22.5988ZM36.0274 22.5988L36.5295 21.734M36.0274 22.5988L36.5295 21.734M36.5295 21.734C28.9011 17.305 19.1156 19.9431 14.7124 27.6131M36.5295 21.734C44.1562 26.1625 46.7786 36.0062 42.375 43.6768C41.8831 44.5342 42.175 45.6301 43.0275 46.1254L14.7124 27.6131M14.7124 27.6131C12.5791 31.329 12.0124 35.658 13.1165 39.8023C14.2205 43.947 16.8634 47.4108 20.5579 49.556L14.7124 27.6131Z" stroke="#231E1E" stroke-width="2"/>
</g>
</g>
<defs>
<filter id="filter0_d" x="4" y="10.9995" width="78.9184" height="62.636" filterUnits="userSpaceOnUse" color-interpolation-filters="sRGB">
<feFlood flood-opacity="0" result="BackgroundImageFix"/>
<feColorMatrix in="SourceAlpha" type="matrix" values="0 0 0 0 0 0 0 0 0 0 0 0 0 0 0 0 0 0 127 0"/>
<feOffset dx="4" dy="4"/>
<feGaussianBlur stdDeviation="3.5"/>
<feColorMatrix type="matrix" values="0 0 0 0 0 0 0 0 0 0 0 0 0 0 0 0 0 0 0.25 0"/>
<feBlend mode="normal" in2="BackgroundImageFix" result="effect1_dropShadow"/>
<feBlend mode="normal" in="SourceGraphic" in2="effect1_dropShadow" result="shape"/>
</filter>
<clipPath id="clip0">
<rect width="78" height="78" fill="white"/>
</clipPath>
</defs>
</svg>
